PathFileType	4	(X/Y/Z)	C:/Users/opensim2020/Desktop/walking_exp_matlab/subject06_walking11_run.trc																																																																																																																																								
DataRate	CameraRate	NumFrames	NumMarkers	Units	OrigDataRate	OrigDataStartFrame	OrigNumFrames																																																																																																																																				
100	100	8	46	mm	100	212	106																																																																																																																																				
Frame#	Time	LKNE			RKNE			RFRM			RWRA			RWRB			RELB			RUPA			RSHO			LWRA			RFIN			RFHD			CLAV			RASI			RTHI			LSHO			LTHI			RBHD			C7			LTIB			LANK			LTOE			LBHD			RTIB			RBAK			LHEE			RANK			STRN			RHEE			RTOE			T10			LUPA			LFHD			LPSI			RPSI			LASI			LFRM			LWRB			LFIN			LELB			*39			*40			*41			*42			*43			*44			*45		
		X1	Y1	Z1	X2	Y2	Z2	X3	Y3	Z3	X4	Y4	Z4	X5	Y5	Z5	X6	Y6	Z6	X7	Y7	Z7	X8	Y8	Z8	X9	Y9	Z9	X10	Y10	Z10	X11	Y11	Z11	X12	Y12	Z12	X13	Y13	Z13	X14	Y14	Z14	X15	Y15	Z15	X16	Y16	Z16	X17	Y17	Z17	X18	Y18	Z18	X19	Y19	Z19	X20	Y20	Z20	X21	Y21	Z21	X22	Y22	Z22	X23	Y23	Z23	X24	Y24	Z24	X25	Y25	Z25	X26	Y26	Z26	X27	Y27	Z27	X28	Y28	Z28	X29	Y29	Z29	X30	Y30	Z30	X31	Y31	Z31	X32	Y32	Z32	X33	Y33	Z33	X34	Y34	Z34	X35	Y35	Z35	X36	Y36	Z36	X37	Y37	Z37	X38	Y38	Z38	X39	Y39	Z39	X40	Y40	Z40	X41	Y41	Z41	X42	Y42	Z42	X43	Y43	Z43	X44	Y44	Z44	X45	Y45	Z45	X46	Y46	Z46
																																																																																																																																											
27	0.26	114.40308	516.82239	669.90308	355.15622	481.99954	936.35071	461.59412	1089.59302	716.57996	345.59366	1144.41357	658.76776	364.38831	1087.83313	630.70966	530.62244	1116.7699	785.96185	503.73746	1218.53516	782.79419	379.09192	1378.0127	720.64941	30.73944	1117.57593	795.2749	325.45514	1136.50269	578.72211	295.71689	1613.53931	645.12097	216.48279	1334.33093	699.88031	336.20746	917.58051	785.35443	380.79004	607.09442	915.28125	75.42187	1395.77979	784.84796	71.14338	650.75116	747.54205	303.69122	1568.10791	778.33051	232.32001	1429.06372	797.27271	114.87054	344.76709	834.82758	145.7384	223.26091	960.19171	153.46353	118.00803	865.98254	175.23013	1577.90002	791.76965	351.90848	277.85574	1108.41309	319.56467	1279.96118	889.54376	188.77594	235.52495	1005.68799	309.48254	143.3365	1235.11316	210.71237	1151.15015	698.73169	272.77628	155.76158	1282.6698	276.16116	29.43545	1137.66638	232.66978	1118.72229	898.36328	-23.58327	1285.74524	910.21021	164.68462	1628.81567	656.97797	137.43285	986.37317	924.19818	306.51593	988.25543	921.57312	119.9212	926.08643	773.50214	-44.91858	1120.72363	899.74982	7.68019	1054.57654	818.1098	32.9524	1047.99304	729.13153	-60.28952	1219.99512	983.76624	NaN	NaN	NaN	234.31853	1667.71094	750.35828	NaN	NaN	NaN	NaN	NaN	NaN	NaN	NaN	NaN	NaN	NaN	NaN	NaN	NaN	NaN
28	0.27	112.73591	532.81042	623.36768	354.91895	492.34827	913.16876	456.94162	1102.70581	674.87079	341.42209	1162.3429	620.92603	358.59253	1106.75	590.39984	527.97083	1125.86536	743.11377	500.9061	1227.21326	740.46509	376.0802	1387.10144	681.24646	27.55015	1128.5011	765.29437	320.01566	1158.13708	540.80219	293.47659	1621.84973	608.84961	214.13339	1342.95471	663.6048	334.91727	925.13446	743.42303	380.0318	615.62305	883.57397	74.99917	1404.57764	750.40723	70.84074	665.72522	702.64093	301.65399	1576.31616	741.9953	231.44119	1437.10718	760.80054	116.13539	344.92316	772.90155	150.31857	211.66444	885.97357	160.72681	114.15136	783.40479	173.24367	1586.17334	755.73242	353.43372	291.91452	1090.88721	321.67633	1288.73682	850.88544	193.21931	220.41479	932.745	313.38992	158.51106	1217.5094	208.75641	1159.84741	661.87805	276.99417	172.84288	1262.72986	276.01648	29.24734	1137.79614	235.7827	1126.37219	860.18671	-21.46319	1297.84143	878.74567	162.43994	1637.27515	621.05707	139.08606	995.08826	885.01868	307.56952	994.93793	880.4093	119.98026	936.16992	733.32928	-44.24649	1133.91296	872.38965	5.51205	1066.19019	789.85883	27.63972	1057.85071	700.28876	-56.73349	1234.23694	954.87781	NaN	NaN	NaN	232.28294	1676.02258	714.28094	NaN	NaN	NaN	NaN	NaN	NaN	NaN	NaN	NaN	NaN	NaN	NaN	NaN	NaN	NaN
29	0.28	111.19677	546.94611	579.3175	354.82382	503.36032	887.80438	452.62073	1115.53333	633.86133	337.64856	1179.1759	583.39557	353.21738	1124.31421	550.92365	525.61975	1135.24426	700.88428	497.89319	1236.40857	698.55884	373.23651	1396.50037	642.22998	25.37079	1138.83459	734.01141	314.7262	1178.15283	503.7836	290.99643	1630.19043	572.37909	211.82309	1351.65112	627.2605	334.20322	933.28998	701.45453	379.41409	624.55859	850.70941	74.26211	1413.27966	715.03113	70.51652	680.22809	659.26093	299.36182	1584.82422	705.54987	230.34334	1445.42126	724.0083	117.71468	344.06174	712.28467	154.8756	200.09053	811.39771	168.34776	110.25562	701.35944	170.98322	1594.55151	719.34143	355.71124	305.99036	1070.61719	323.31757	1297.70288	811.62988	197.64227	205.8049	858.79407	317.43021	171.75229	1196.34534	207.66397	1169.08838	625.61877	280.97894	189.68323	1238.45593	276.48148	29.66813	1137.73364	238.76453	1134.43005	821.77478	-19.55766	1309.37268	846.04572	160.06366	1645.51086	584.71161	140.6431	1004.03137	844.88531	308.03299	1001.61517	839.13239	119.97939	946.44128	692.96082	-43.41189	1145.89551	843.2879	4.06153	1076.26111	760.32782	23.19901	1067.14111	670.06726	-53.15342	1247.52881	924.58826	NaN	NaN	NaN	229.86774	1684.51367	677.94232	NaN	NaN	NaN	NaN	NaN	NaN	NaN	NaN	NaN	NaN	NaN	NaN	NaN	NaN	NaN
30	0.29	109.94286	558.55151	537.51062	354.82367	514.16394	860.94788	448.65714	1127.61023	593.59424	334.44714	1194.6792	546.04523	348.26971	1140.18909	512.2807	523.45306	1144.58069	659.48157	495.19931	1245.95239	657.35864	370.35992	1405.63147	603.87927	24.0625	1148.32104	701.43579	310.52182	1195.64551	466.64444	288.27859	1637.96887	535.8822	209.80815	1360.0752	590.95923	333.71713	941.48395	659.48517	379.23846	633.3515	817.41656	73.40881	1421.57922	678.84479	70.15643	692.96344	617.93536	296.8497	1593.20435	669.07861	229.15404	1453.60095	687.10223	119.1943	341.69238	652.51263	159.18974	188.84097	736.61609	176.28067	106.58599	620.12335	168.42511	1602.65198	682.85913	358.78418	319.543	1047.35571	324.56323	1306.4762	772.33899	201.36086	192.13849	784.50616	321.01001	183.38937	1173.39038	204.77263	1178.04639	585.93994	285.37878	205.94328	1212.18518	277.20517	34.24456	1131.48938	241.52699	1142.45178	783.07568	-17.98652	1320.10974	812.33917	157.60257	1653.0155	548.0979	142.26306	1012.69	804.18054	308.2558	1007.97235	797.4563	120.14398	956.17511	652.63403	-42.15663	1156.69739	812.45166	3.81014	1086.23462	729.44379	19.68464	1075.76672	638.70258	-49.89178	1259.50977	892.73029	NaN	NaN	NaN	227.06711	1692.71948	641.15076	NaN	NaN	NaN	NaN	NaN	NaN	NaN	NaN	NaN	NaN	NaN	NaN	NaN	NaN	NaN
31	0.3	108.72689	566.97095	497.76114	355.52682	524.5564	833.36371	445.38452	1138.72717	554.00421	332.00333	1208.61169	508.78806	343.62198	1153.93689	474.65961	521.76276	1153.45996	618.6261	492.82794	1255.47131	616.8902	367.35489	1414.18701	566.10931	23.4336	1156.8418	667.84076	306.6398	1210.49414	429.94659	285.58325	1644.51379	499.21948	207.83211	1367.77649	554.91925	333.85532	949.29547	617.75958	379.16794	641.78766	784.06287	72.54041	1429.25378	642.10217	70.17792	703.04938	579.02301	294.16675	1600.78821	632.80658	227.78334	1461.09338	650.11017	120.22671	337.91788	593.4895	163.39497	178.1546	661.91132	184.81689	102.64796	540.38641	165.66589	1609.99756	646.26849	360.5336	332.2298	1022.28595	325.50107	1314.44849	733.27771	205.13757	179.39149	710.31006	323.64023	196.00922	1147.31726	202.87379	1186.19177	547.39941	288.63885	222.07298	1183.79858	279.30267	41.63267	1121.38586	243.83597	1150.00879	744.12091	-16.78509	1329.82666	777.64368	154.84288	1659.35815	511.22095	143.8362	1020.63818	763.40759	308.96777	1013.91064	755.54395	120.26614	964.79663	612.79846	-40.70555	1166.19397	780.16577	4.09589	1095.05713	696.75018	17.08879	1083.65662	606.21106	-47.04335	1269.96851	859.65143	NaN	NaN	NaN	224.08566	1700.11462	604.01453	NaN	NaN	NaN	NaN	NaN	NaN	NaN	NaN	NaN	NaN	NaN	NaN	NaN	NaN	NaN
32	0.31	107.53028	572.61353	459.48364	356.4433	534.28894	804.53357	443.03107	1148.56458	514.70709	330.20044	1220.75146	471.46161	340.33313	1165.88513	436.77316	520.64301	1161.47473	578.33527	490.73685	1264.4834	577.12073	364.33841	1421.91223	528.87939	23.2561	1164.37183	633.16461	302.84134	1222.86499	393.28864	282.87714	1650.00146	462.64334	205.98105	1374.62146	518.80042	333.5976	956.1676	576.55212	379.68149	649.92151	750.93402	71.71266	1435.901	604.91516	70.29679	710.08966	541.41693	291.33289	1607.29761	596.88361	226.41443	1467.3595	613.24335	120.96257	333.40359	535.27057	167.19681	168.44559	587.96527	193.09079	99.06509	462.07611	162.69156	1616.2467	609.63763	360.83337	343.55875	994.98096	325.93805	1321.19604	694.56049	208.56392	167.94951	636.42926	325.21002	208.82843	1119.23584	201.10385	1193.32874	508.85327	290.60767	237.58226	1153.10974	281.17926	50.20407	1106.91113	245.51411	1156.8905	705.08368	-16.06268	1338.21509	742.24127	152.08569	1664.4657	474.21021	145.38795	1027.53137	722.96521	310.35574	1019.41455	713.9906	120.4438	971.79187	573.67572	-39.33606	1174.27844	746.53857	4.42602	1103.01831	663.11981	15.30108	1090.74915	572.59344	-44.82977	1278.68848	825.63684	NaN	NaN	NaN	220.92572	1706.25549	566.68939	NaN	NaN	NaN	NaN	NaN	NaN	NaN	NaN	NaN	NaN	NaN	NaN	NaN	NaN	NaN
33	0.32	106.16289	575.79205	422.31183	356.95831	542.72198	773.02954	441.15536	1156.85742	476.35266	329.19797	1230.87695	434.12976	337.1492	1175.34424	399.91989	520.255	1168.48657	538.52002	489.00449	1272.40759	538.00891	361.65408	1428.72278	492.13348	23.45066	1170.82898	597.61938	299.32535	1232.78772	356.76346	280.16074	1654.83044	426.11533	204.11143	1380.41357	482.40897	333.26486	961.73187	535.60663	380.20996	657.35284	716.91791	70.60938	1441.38074	567.69592	70.24569	714.20599	504.77078	288.33804	1612.92578	560.74414	224.93556	1472.24512	576.87714	121.78115	328.51868	478.64594	170.72589	159.8064	515.15454	200.58087	95.91797	385.6026	159.6192	1621.41321	572.93933	360.62091	352.98444	964.20813	325.86105	1326.48975	656.30939	211.86211	158.013	563.66229	325.0217	222.33736	1091.84229	199.633	1199.34741	470.19843	289.58121	251.76099	1124.21057	283.86121	59.24636	1087.91174	246.5811	1162.78796	665.99109	-15.91696	1345.00269	706.25348	149.18878	1668.90979	437.24106	146.9359	1032.86633	683.02539	312.11401	1024.44348	672.64807	120.60888	976.8183	535.21204	-38.08273	1180.81335	711.78125	4.9895	1109.60852	627.96313	14.07796	1097.00439	537.8465	-43.37605	1285.38074	790.76007	NaN	NaN	NaN	217.6483	1711.33643	529.70129	NaN	NaN	NaN	NaN	NaN	NaN	NaN	NaN	NaN	NaN	NaN	NaN	NaN	NaN	NaN
34	0.33	104.74816	576.40436	386.57413	357.43774	548.95654	738.43976	440.32993	1163.58936	438.16779	328.85861	1238.83691	396.51181	335.11377	1182.78601	363.05746	520.50421	1174.33948	499.34933	487.84354	1278.96765	499.4697	359.36771	1434.50684	455.49139	23.66221	1176.09277	561.32257	296.4574	1240.17944	320.23041	277.43152	1659.13928	389.84592	202.28302	1385.16479	445.61481	333.37689	965.91663	495.31683	380.59479	663.29053	681.16632	69.33739	1445.52905	530.41296	69.56271	715.61292	468.85129	285.20953	1617.63916	524.27515	223.14706	1475.82776	540.65137	122.44106	323.26584	424.12241	173.91939	152.58144	444.35748	207.42256	94.02575	311.56213	156.49162	1625.59827	536.1994	360.10257	361.22211	931.47986	325.12585	1330.37024	618.3537	214.59007	149.61565	492.47406	323.58484	236.09421	1065.55505	198.48155	1204.104	431.69775	287.38757	264.6001	1098.1543	287.91544	73.16473	1058.87891	246.92241	1167.72449	626.9873	-16.2826	1349.90991	669.88507	146.39232	1672.80151	400.40997	148.81438	1036.6106	643.65564	313.73642	1028.60413	631.67981	120.85562	980.03363	496.85062	-37.41192	1185.81763	675.97198	5.15742	1115.0625	591.89117	13.51185	1102.35645	501.6059	-42.71657	1290.01611	755.18677	NaN	NaN	NaN	214.34836	1715.63879	492.98138	NaN	NaN	NaN	NaN	NaN	NaN	NaN	NaN	NaN	NaN	NaN	NaN	NaN	NaN	NaN
